# xmcd
#
# Track frame offsets:
#	150
#	18443
#	37394
#	58017
#	77568
#	98052
#	111964
#	133684
#	153179
#	173315
#	187157
#
# Disc length: 2734 seconds
#
# Revision: 0
# Processed by: cddbd v1.5.2PL0 Copyright (c) Steve Scherf et al.
# Submitted via: EZCDAudioConverter 8.0.2.1
#
DISCID=8a0aac0b
DTITLE=Nguyễn Phi Hùng - Vol 02. Niềm Tin
DYEAR=2000
DGENRE=World Pop
TTITLE0=Xin một lần thôi
TTITLE1=Vắng cha
TTITLE2=Vẫn yêu
TTITLE3=Tình say
TTITLE4=Mưa tuyệt vọng
TTITLE5=Tình mộng
TTITLE6=Còn chút gì để nhớ
TTITLE7=Tình đã vội quên
TTITLE8=Niềm Tin
TTITLE9=Mùa hè vui
TTITLE10=Vầng trăng kỷ niệm
EXTD=
EXTT0=
EXTT1=
EXTT2=
EXTT3=
EXTT4=
EXTT5=
EXTT6=
EXTT7=
EXTT8=
EXTT9=
EXTT10=
PLAYORDER=
